<svg width="70" height="77" viewBox="0 0 70 77" fill="none" xmlns="http://www.w3.org/2000/svg">
<path d="M16 0C17.6569 0 19 1.34315 19 3V7H52V3C52 1.34315 53.3431 0 55 0H57C58.6569 0 60 1.34315 60 3V7H63C66.866 7 70 10.134 70 14V70C70 73.866 66.866 77 63 77H7C3.13401 77 5.63743e-08 73.866 0 70V14C9.01988e-07 10.134 3.13401 7 7 7H11V3C11 1.34315 12.3431 0 14 0H16ZM13 25C10.2386 25 8 27.2386 8 30V64C8 66.7614 10.2386 69 13 69H57C59.7614 69 62 66.7614 62 64V30C62 27.2386 59.7614 25 57 25H13Z" fill="#D9D9D9"/>
</svg>
