<svg width="90" height="75" viewBox="0 0 90 75" fill="none" xmlns="http://www.w3.org/2000/svg">
<path d="M74.8712 8.19874C73.9746 5.50875 72.1812 3.2671 69.4912 1.92211C65.4563 -0.319546 60.5246 -0.767877 56.4897 1.47378L43.9364 7.75041H17.9332C8.06995 7.75041 0 15.8204 0 25.6836V57.0668C0 66.9301 8.06995 75 17.9332 75H44.8331H71.7329C81.5962 75 89.6661 66.9301 89.6661 57.0668V25.6836C89.6661 16.717 83.3895 9.54373 74.8712 8.19874ZM40.3498 66.0334H17.9332C13.0016 66.0334 8.96661 61.9984 8.96661 57.0668V25.6836C8.96661 20.752 13.0016 16.717 17.9332 16.717H40.3498V66.0334ZM59.628 57.9634L49.3164 63.3434V14.9237L60.973 9.0954C62.7663 8.19874 64.5596 9.0954 65.4563 9.0954C65.9046 9.99206 67.2496 10.8887 67.2496 13.1304V45.8585C67.2496 51.2385 64.5596 55.7218 59.628 57.9634ZM80.6995 57.0668C80.6995 61.9984 76.6645 66.0334 71.7329 66.0334H63.6629C71.2846 61.9984 76.2162 54.3768 76.2162 45.8585V18.062C78.9062 19.407 80.6995 22.5453 80.6995 25.6836V57.0668Z" fill="#D3D3D3"/>
</svg>
