<svg width="78" height="75" viewBox="0 0 78 75" fill="none" xmlns="http://www.w3.org/2000/svg">
<path fill-rule="evenodd" clip-rule="evenodd" d="M66.3 41.25H54.6C48.1377 41.25 42.9 46.2863 42.9 52.5V63.75C42.9 69.9637 48.1377 75 54.6 75H66.3C72.7623 75 78 69.9637 78 63.75V52.5C78 46.2863 72.7623 41.25 66.3 41.25ZM23.4 41.25H11.7C5.23771 41.25 0 46.2863 0 52.5V63.75C0 69.9637 5.23771 75 11.7 75H23.4C29.8623 75 35.1 69.9637 35.1 63.75V52.5C35.1 46.2863 29.8623 41.25 23.4 41.25ZM66.3 0H54.6C48.1377 0 42.9 5.03625 42.9 11.25V22.5C42.9 28.7137 48.1377 33.75 54.6 33.75H66.3C72.7623 33.75 78 28.7137 78 22.5V11.25C78 5.03625 72.7623 0 66.3 0ZM35.1 11.25V22.5C35.1 28.7137 29.8623 33.75 23.4 33.75H11.7C5.23771 33.75 0 28.7137 0 22.5V11.25C0 5.03625 5.23771 0 11.7 0H23.4C29.8623 0 35.1 5.03625 35.1 11.25Z" fill="#D3D3D3"/>
</svg>
