<svg width="59" height="76" viewBox="0 0 59 76" fill="none" xmlns="http://www.w3.org/2000/svg">
<path d="M51.1543 0C55.0203 0 58.1543 3.13401 58.1543 7V72.334C58.1543 74.5534 55.8281 76.0046 53.835 75.0283L32.1562 64.4102C30.2138 63.4588 27.9405 63.4588 25.998 64.4102L4.31934 75.0283C2.32621 76.0044 0 74.5533 0 72.334V7C3.39926e-06 3.13401 3.13401 9.92616e-08 7 0H51.1543ZM12.3076 8.30762C10.0986 8.30773 8.30773 10.0986 8.30762 12.3076V58.2188C8.30784 59.7654 9.98909 60.7266 11.3223 59.9424L26.5127 51.0068C27.7341 50.2883 29.2446 50.2698 30.4834 50.958L46.876 60.0645C48.209 60.8048 49.8466 59.8412 49.8467 58.3164V12.3076C49.8466 10.0986 48.0557 8.30762 45.8467 8.30762H12.3076Z" fill="#D9D9D9"/>
</svg>
