<svg width="75" height="75" viewBox="0 0 75 75" fill="none" xmlns="http://www.w3.org/2000/svg">
<path d="M13.0889 22.7676C16.9548 22.7676 20.0887 25.9017 20.0889 29.7676V68C20.0889 71.866 16.9549 75 13.0889 75H7C3.13401 75 6.63644e-08 71.866 0 68V29.7676C0.000147619 25.9017 3.1341 22.7676 7 22.7676H13.0889ZM41.2139 0C45.0799 0 48.2139 3.13401 48.2139 7V68C48.2139 71.866 45.0799 75 41.2139 75H35.125C31.259 75 28.125 71.866 28.125 68V7C28.125 3.13401 31.259 3.58307e-07 35.125 0H41.2139ZM68 41.5176C71.8659 41.5176 74.9998 44.6517 75 48.5176V68C75 71.866 71.866 75 68 75H61.9111C58.0451 75 54.9111 71.866 54.9111 68V48.5176C54.9113 44.6517 58.0452 41.5176 61.9111 41.5176H68Z" fill="#D9D9D9"/>
</svg>
